<svg width="197" height="81" viewBox="0 0 197 81" fill="none" xmlns="http://www.w3.org/2000/svg">
<rect width="197" height="81" fill="#121212"/>
<path d="M58.42 40.5V26.5H60.92L65.66 35.82L70.38 26.5H72.88V40.5H70.76V30.16L66.48 38.5H64.84L60.54 30.18V40.5H58.42ZM79.3247 40.5V26.5H81.4447V40.5H79.3247ZM87.8856 40.5V26.5H90.3856L95.1256 35.82L99.8456 26.5H102.346V40.5H100.226V30.16L95.9456 38.5H94.3056L90.0056 30.18V40.5H87.8856ZM108.79 40.5V26.5H110.91V40.5H108.79ZM117.351 40.5V26.5H119.471L126.491 37.04V26.5H128.611V40.5H126.491L119.471 29.96V40.5H117.351ZM141.513 40.74C140.126 40.74 138.913 40.4333 137.873 39.82C136.833 39.2067 136.019 38.36 135.433 37.28C134.846 36.1867 134.553 34.9267 134.553 33.5C134.553 32.0733 134.846 30.82 135.433 29.74C136.019 28.6467 136.833 27.7933 137.873 27.18C138.913 26.5667 140.126 26.26 141.513 26.26C142.899 26.26 144.113 26.5667 145.153 27.18C146.193 27.7933 146.999 28.6467 147.573 29.74C148.159 30.82 148.453 32.0733 148.453 33.5C148.453 34.9267 148.159 36.1867 147.573 37.28C146.999 38.36 146.193 39.2067 145.153 39.82C144.113 40.4333 142.899 40.74 141.513 40.74ZM141.513 38.84C142.473 38.84 143.306 38.6267 144.013 38.2C144.733 37.7733 145.293 37.16 145.693 36.36C146.093 35.56 146.293 34.6067 146.293 33.5C146.293 32.3933 146.093 31.44 145.693 30.64C145.293 29.84 144.733 29.2267 144.013 28.8C143.306 28.3733 142.473 28.16 141.513 28.16C140.553 28.16 139.713 28.3733 138.993 28.8C138.273 29.2267 137.713 29.84 137.313 30.64C136.926 31.44 136.733 32.3933 136.733 33.5C136.733 34.6067 136.926 35.56 137.313 36.36C137.713 37.16 138.273 37.7733 138.993 38.2C139.713 38.6267 140.553 38.84 141.513 38.84Z" fill="#F7F7F7"/>
<path d="M29.592 56.5V50.9H31.4C31.8373 50.9 32.1947 50.972 32.472 51.116C32.7493 51.26 32.9547 51.4573 33.088 51.708C33.2213 51.9587 33.288 52.236 33.288 52.54C33.288 52.892 33.192 53.2093 33 53.492C32.8133 53.7747 32.52 53.9747 32.12 54.092L33.344 56.5H32.552L31.416 54.188H31.368H30.264V56.5H29.592ZM30.264 53.66H31.352C31.784 53.66 32.0987 53.556 32.296 53.348C32.4933 53.14 32.592 52.8733 32.592 52.548C32.592 52.2173 32.4933 51.956 32.296 51.764C32.104 51.5667 31.7867 51.468 31.344 51.468H30.264V53.66ZM35.7742 56.5V50.9H39.2382V51.452H36.4462V53.404H38.9982V53.948H36.4462V55.948H39.2382V56.5H35.7742ZM43.5138 56.596C43.1031 56.596 42.7458 56.5213 42.4418 56.372C42.1378 56.2227 41.9031 56.0147 41.7378 55.748C41.5725 55.4813 41.4898 55.172 41.4898 54.82H42.1938C42.1938 55.0387 42.2445 55.2413 42.3458 55.428C42.4471 55.6093 42.5938 55.756 42.7858 55.868C42.9831 55.9747 43.2258 56.028 43.5138 56.028C43.8925 56.028 44.1858 55.9373 44.3938 55.756C44.6018 55.5747 44.7058 55.348 44.7058 55.076C44.7058 54.852 44.6578 54.6733 44.5618 54.54C44.4658 54.4013 44.3351 54.2893 44.1698 54.204C44.0098 54.1187 43.8231 54.044 43.6098 53.98C43.4018 53.916 43.1831 53.844 42.9538 53.764C42.5218 53.6147 42.2018 53.4307 41.9938 53.212C41.7858 52.988 41.6818 52.6973 41.6818 52.34C41.6765 52.0413 41.7458 51.7773 41.8898 51.548C42.0338 51.3133 42.2365 51.132 42.4978 51.004C42.7645 50.8707 43.0791 50.804 43.4418 50.804C43.7991 50.804 44.1085 50.8707 44.3698 51.004C44.6365 51.1373 44.8418 51.3213 44.9858 51.556C45.1351 51.7907 45.2125 52.0573 45.2178 52.356H44.5138C44.5138 52.2013 44.4738 52.0493 44.3938 51.9C44.3138 51.7453 44.1911 51.62 44.0258 51.524C43.8658 51.428 43.6631 51.38 43.4178 51.38C43.1138 51.3747 42.8631 51.452 42.6658 51.612C42.4738 51.772 42.3778 51.9933 42.3778 52.276C42.3778 52.516 42.4445 52.7 42.5778 52.828C42.7165 52.956 42.9085 53.0627 43.1538 53.148C43.3991 53.228 43.6818 53.3213 44.0018 53.428C44.2685 53.524 44.5085 53.636 44.7218 53.764C44.9351 53.892 45.1005 54.0573 45.2178 54.26C45.3405 54.4627 45.4018 54.7213 45.4018 55.036C45.4018 55.3027 45.3325 55.556 45.1938 55.796C45.0551 56.0307 44.8445 56.2227 44.5618 56.372C44.2845 56.5213 43.9351 56.596 43.5138 56.596ZM48.974 56.5V51.452H47.302V50.9H51.318V51.452H49.646V56.5H48.974ZM52.5938 56.5L54.6578 50.9H55.3698L57.4258 56.5H56.7138L56.2018 55.06H53.8178L53.2978 56.5H52.5938ZM54.0178 54.516H56.0018L55.0098 51.748L54.0178 54.516ZM61.4801 56.596C61.0961 56.596 60.7467 56.5213 60.4321 56.372C60.1227 56.2173 59.8747 55.98 59.6881 55.66C59.5014 55.34 59.4081 54.932 59.4081 54.436V50.9H60.0801V54.444C60.0801 54.988 60.2107 55.3827 60.4721 55.628C60.7334 55.8733 61.0747 55.996 61.4961 55.996C61.9174 55.996 62.2561 55.8733 62.5121 55.628C62.7681 55.3827 62.8961 54.988 62.8961 54.444V50.9H63.5681V54.436C63.5681 54.932 63.4747 55.34 63.2881 55.66C63.1014 55.98 62.8507 56.2173 62.5361 56.372C62.2214 56.5213 61.8694 56.596 61.4801 56.596ZM66.1461 56.5V50.9H67.9541C68.3914 50.9 68.7487 50.972 69.0261 51.116C69.3034 51.26 69.5087 51.4573 69.6421 51.708C69.7754 51.9587 69.8421 52.236 69.8421 52.54C69.8421 52.892 69.7461 53.2093 69.5541 53.492C69.3674 53.7747 69.0741 53.9747 68.6741 54.092L69.8981 56.5H69.1061L67.9701 54.188H67.9221H66.8181V56.5H66.1461ZM66.8181 53.66H67.9061C68.3381 53.66 68.6527 53.556 68.8501 53.348C69.0474 53.14 69.1461 52.8733 69.1461 52.548C69.1461 52.2173 69.0474 51.956 68.8501 51.764C68.6581 51.5667 68.3407 51.468 67.8981 51.468H66.8181V53.66ZM71.9763 56.5L74.0403 50.9H74.7523L76.8083 56.5H76.0963L75.5843 55.06H73.2003L72.6803 56.5H71.9763ZM73.4003 54.516H75.3843L74.3923 51.748L73.4003 54.516ZM79.0808 56.5V50.9H79.7528L82.7368 55.388V50.9H83.4088V56.5H82.7368L79.7528 52.012V56.5H79.0808ZM87.3484 56.5V51.452H85.6764V50.9H89.6924V51.452H88.0204V56.5H87.3484ZM91.4345 54.46V53.892H94.6025V54.46H91.4345ZM97.0961 56.5V50.9H97.7681V53.372H100.672V50.9H101.344V56.5H100.672V53.924H97.7681V56.5H97.0961ZM106.51 56.596C105.96 56.596 105.478 56.476 105.062 56.236C104.651 55.9907 104.328 55.6493 104.094 55.212C103.864 54.7747 103.75 54.2707 103.75 53.7C103.75 53.1293 103.864 52.628 104.094 52.196C104.328 51.7587 104.651 51.4173 105.062 51.172C105.478 50.9267 105.96 50.804 106.51 50.804C107.064 50.804 107.547 50.9267 107.958 51.172C108.374 51.4173 108.696 51.7587 108.926 52.196C109.155 52.628 109.27 53.1293 109.27 53.7C109.27 54.2707 109.155 54.7747 108.926 55.212C108.696 55.6493 108.374 55.9907 107.958 56.236C107.547 56.476 107.064 56.596 106.51 56.596ZM106.51 56.004C106.92 56.004 107.28 55.9133 107.59 55.732C107.904 55.5453 108.147 55.2813 108.318 54.94C108.494 54.5933 108.582 54.18 108.582 53.7C108.582 53.22 108.494 52.8093 108.318 52.468C108.147 52.1267 107.904 51.8653 107.59 51.684C107.28 51.4973 106.92 51.404 106.51 51.404C106.099 51.404 105.736 51.4973 105.422 51.684C105.112 51.8653 104.87 52.1267 104.694 52.468C104.523 52.8093 104.438 53.22 104.438 53.7C104.438 54.18 104.523 54.5933 104.694 54.94C104.87 55.2813 105.112 55.5453 105.422 55.732C105.736 55.9133 106.099 56.004 106.51 56.004ZM112.702 56.5V51.452H111.03V50.9H115.046V51.452H113.374V56.5H112.702ZM117.307 56.5V50.9H120.771V51.452H117.979V53.404H120.531V53.948H117.979V55.948H120.771V56.5H117.307ZM123.262 56.5V50.9H123.934V55.964H126.542V56.5H123.262ZM134.919 56.596C134.369 56.596 133.895 56.476 133.495 56.236C133.1 55.9907 132.793 55.652 132.575 55.22C132.356 54.7827 132.247 54.276 132.247 53.7C132.247 53.1293 132.356 52.628 132.575 52.196C132.793 51.7587 133.1 51.4173 133.495 51.172C133.895 50.9267 134.369 50.804 134.919 50.804C135.559 50.804 136.079 50.9587 136.479 51.268C136.884 51.572 137.143 51.9987 137.255 52.548H136.511C136.425 52.2013 136.249 51.924 135.983 51.716C135.721 51.5027 135.367 51.396 134.919 51.396C134.519 51.396 134.169 51.4893 133.871 51.676C133.572 51.8573 133.34 52.1213 133.175 52.468C133.015 52.8093 132.935 53.22 132.935 53.7C132.935 54.18 133.015 54.5933 133.175 54.94C133.34 55.2813 133.572 55.5453 133.871 55.732C134.169 55.9133 134.519 56.004 134.919 56.004C135.367 56.004 135.721 55.9027 135.983 55.7C136.249 55.492 136.425 55.2173 136.511 54.876H137.255C137.143 55.4147 136.884 55.836 136.479 56.14C136.079 56.444 135.559 56.596 134.919 56.596ZM142.204 56.596C141.655 56.596 141.172 56.476 140.756 56.236C140.346 55.9907 140.023 55.6493 139.788 55.212C139.559 54.7747 139.444 54.2707 139.444 53.7C139.444 53.1293 139.559 52.628 139.788 52.196C140.023 51.7587 140.346 51.4173 140.756 51.172C141.172 50.9267 141.655 50.804 142.204 50.804C142.759 50.804 143.242 50.9267 143.652 51.172C144.068 51.4173 144.391 51.7587 144.62 52.196C144.85 52.628 144.964 53.1293 144.964 53.7C144.964 54.2707 144.85 54.7747 144.62 55.212C144.391 55.6493 144.068 55.9907 143.652 56.236C143.242 56.476 142.759 56.596 142.204 56.596ZM142.204 56.004C142.615 56.004 142.975 55.9133 143.284 55.732C143.599 55.5453 143.842 55.2813 144.012 54.94C144.188 54.5933 144.276 54.18 144.276 53.7C144.276 53.22 144.188 52.8093 144.012 52.468C143.842 52.1267 143.599 51.8653 143.284 51.684C142.975 51.4973 142.615 51.404 142.204 51.404C141.794 51.404 141.431 51.4973 141.116 51.684C140.807 51.8653 140.564 52.1267 140.388 52.468C140.218 52.8093 140.132 53.22 140.132 53.7C140.132 54.18 140.218 54.5933 140.388 54.94C140.564 55.2813 140.807 55.5453 141.116 55.732C141.431 55.9133 141.794 56.004 142.204 56.004ZM147.374 56.5V50.9H148.158L150.174 54.804L152.174 50.9H152.966V56.5H152.294V52.1L150.422 55.7H149.918L148.046 52.108V56.5H147.374ZM155.587 56.5V50.9H157.427C157.865 50.9 158.225 50.972 158.507 51.116C158.79 51.26 158.998 51.4547 159.131 51.7C159.27 51.9453 159.339 52.2227 159.339 52.532C159.339 52.836 159.273 53.1107 159.139 53.356C159.006 53.6013 158.798 53.7987 158.515 53.948C158.233 54.092 157.87 54.164 157.427 54.164H156.259V56.5H155.587ZM156.259 53.596H157.411C157.859 53.596 158.177 53.5027 158.363 53.316C158.555 53.124 158.651 52.8627 158.651 52.532C158.651 52.196 158.555 51.9347 158.363 51.748C158.177 51.556 157.859 51.46 157.411 51.46H156.259V53.596ZM161.66 56.5V50.9H162.332V55.964H164.94V56.5H161.66ZM167.303 56.5V50.9H170.767V51.452H167.975V53.404H170.527V53.948H167.975V55.948H170.767V56.5H167.303ZM172.971 56.5L174.683 53.676L172.971 50.9H173.731L175.107 53.14L176.419 50.9H177.171L175.459 53.708L177.179 56.5H176.419L175.035 54.252L173.731 56.5H172.971Z" fill="#D8D7D7"/>
</svg>
