<?xml version="1.0" standalone="no"?>
<!DOCTYPE svg PUBLIC "-//W3C//DTD SVG 20010904//EN"
 "http://www.w3.org/TR/2001/REC-SVG-20010904/DTD/svg10.dtd">
<svg version="1.0" xmlns="http://www.w3.org/2000/svg"
 width="48.000000pt" height="48.000000pt" viewBox="0 0 48.000000 48.000000"
 preserveAspectRatio="xMidYMid meet">

<g transform="translate(0.000000,48.000000) scale(0.100000,-0.100000)"
fill="#000000" stroke="none">
<path d="M162 467 c-18 -5 -52 -27 -76 -48 -113 -100 -115 -253 -4 -355 55
-51 103 -68 178 -62 119 9 210 100 218 219 6 77 -15 132 -71 187 -66 65 -158
87 -245 59z m-118 -231 c-10 -27 -25 -18 -20 12 2 15 5 29 5 32 1 3 6 -2 11
-12 6 -9 7 -23 4 -32z m53 9 c4 -27 -11 -34 -21 -10 -6 17 3 49 12 40 3 -3 8
-17 9 -30z m118 13 c9 31 25 17 24 -21 -1 -18 -3 -24 -6 -14 -5 19 -23 24 -23
6 0 -8 -4 -8 -14 0 -11 10 -15 8 -19 -6 -3 -10 -5 0 -6 22 l-1 40 19 -24 19
-24 7 21z m62 -30 c-2 -13 -4 -5 -4 17 -1 22 1 32 4 23 2 -10 2 -28 0 -40z
m76 33 c3 16 5 11 5 -16 l2 -40 -19 24 -19 25 -5 -25 c-3 -16 -5 -11 -5 16
l-2 40 19 -24 19 -25 5 25z m101 -3 c8 -14 7 -21 -6 -34 -30 -30 -75 9 -48 42
16 18 39 15 54 -8z m-317 -35 c-3 -10 -5 -2 -5 17 0 19 2 27 5 18 2 -10 2 -26
0 -35z m-67 7 c0 -5 -4 -10 -10 -10 -5 0 -10 5 -10 10 0 6 5 10 10 10 6 0 10
-4 10 -10z"/>
<path d="M404 255 c-7 -18 3 -35 21 -35 18 0 26 15 19 34 -8 20 -33 21 -40 1z"/>
</g>
</svg>
