<svg xmlns="http://www.w3.org/2000/svg" aria-hidden="true" style="position:absolute;width:0;height:0;overflow:hidden">
<defs>
<symbol id="icon-menu" viewBox="0 0 32 32">
<path stroke-linecap="round" stroke-linejoin="round" stroke-width="2" d="M4 16h24M4 8h24M4 24h16"/>
</symbol>
<symbol id="icon-v" viewBox="0 0 20 20">
<path stroke-linecap="round" stroke-linejoin="round" stroke-width="2.88" d="m8 12 8 8 8-8"/>
</symbol>
<symbol id="icon-x" viewBox="0 0 32 32">
<path stroke-linecap="round" stroke-linejoin="round" stroke-width="1.8" d="M22.667 9.333 9.334 22.666M9.333 9.333l13.333 13.333"/>
</symbol>
<symbol id="icon-twitter" viewBox="0 0 32 32">
<path stroke-linecap="round" stroke-linejoin="round" stroke-width="2.08" d="M30.667 4.001a14.53 14.53 0 0 1-4.187 2.04 5.975 5.975 0 0 0-6.637-1.661A5.977 5.977 0 0 0 16 10.041v1.333a14.211 14.211 0 0 1-12-6.04s-5.333 12 6.667 17.333a15.519 15.519 0 0 1-9.333 2.667c12 6.667 26.667 0 26.667-15.333a5.966 5.966 0 0 0-.107-1.107 10.288 10.288 0 0 0 2.773-4.893z"/>
</symbol>
<symbol id="icon-facebook" viewBox="0 0 32 32">
<path stroke-linecap="round" stroke-linejoin="round" stroke-width="2.08" d="M24 2.666h-4a6.67 6.67 0 0 0-6.667 6.667v4h-4v5.333h4v10.667h5.333V18.666h4l1.333-5.333h-5.333v-4A1.335 1.335 0 0 1 20 7.999h4V2.666z"/>
</symbol>
<symbol id="icon-instagram" viewBox="0 0 32 32">
<path stroke-linecap="round" stroke-linejoin="round" stroke-width="2.08" d="M22.666 2.666H9.333a6.667 6.667 0 0 0-6.667 6.667v13.333a6.667 6.667 0 0 0 6.667 6.667h13.333a6.667 6.667 0 0 0 6.667-6.667V9.333a6.667 6.667 0 0 0-6.667-6.667z"/>
<path stroke-linecap="round" stroke-linejoin="round" stroke-width="2.08" d="M21.333 15.16a5.336 5.336 0 0 1-6.123 6.049 5.334 5.334 0 0 1-3.916-7.663 5.338 5.338 0 0 1 5.547-2.878 5.334 5.334 0 0 1 4.493 4.493zM23.334 8.666h.016"/>
</symbol>
<symbol id="icon-left" viewBox="0 0 32 32">
<path stroke-linecap="round" stroke-linejoin="round" stroke-width="1.778" d="M19.556 22.222 13.334 16l6.222-6.222"/>
</symbol>
<symbol id="icon-right" viewBox="0 0 32 32">
<path stroke-linecap="round" stroke-linejoin="round" stroke-width="1.778" d="M12.444 22.222 18.666 16l-6.222-6.222"/>
</symbol>
<symbol id="select" viewBox="0 0 20 20">
<path stroke-linecap="round" stroke-linejoin="round" stroke-width="1.8" d="M5 7.5L10 12.5L15 7.5"/>
</symbol>
</defs>
</svg>